<svg width="143" height="171" viewBox="0 0 143 171" xmlns="http://www.w3.org/2000/svg">
    <g fill="none" fill-rule="evenodd">
        <path d="M68.993 169.603l34.785-20.083h.001l19.612-11.323h.001l15.17-8.759c2.444-1.41 2.444-3.72 0-5.13l-15.17-8.76-19.614-11.324L80.681 90.89c-2.443-1.41-6.44-1.41-8.884 0l-34.785 20.083-19.614 11.324-15.17 8.76c-2.444 1.41-2.444 3.718 0 5.13l23.096 13.334 19.613 11.324 15.171 8.76c2.445 1.41 6.442 1.41 8.885 0" fill-opacity=".2" fill="#FF8F52"/>
        <path d="M7.346 120.714c-.976-.563-1.773-1.945-1.773-3.072v-2.048l5.494-1.264-.205 2.307 14.284-8.247v-.001l19.574-11.3 39.147-22.603 39.148 22.603 13.283 7.669v-.642h3.686v4.254h-.003c.008.935-.6 1.87-1.826 2.579l-15.14 8.742-19.573 11.3h-.001l-19.574 11.3-15.14 8.742c-2.438 1.408-6.428 1.408-8.866 0l-15.141-8.741-19.574-11.301-17.8-10.277zM33.048 110.087h.014-.014zM76.69 13.252c1.464-.845 2.661-.153 2.661 1.536v49.55c0 1.689-1.197 3.763-2.66 4.607l-63.943 36.917c-1.463.845-2.66.155-2.66-1.535v-49.55c0-1.69 1.197-3.763 2.66-4.608L76.69 13.252z" stroke="#33475C" stroke-width="5" stroke-linecap="round" stroke-linejoin="round"/>
        <path d="M68.759 124.992c-2.068-1.194-2.068-3.148 0-4.342l23.373-13.495c2.068-1.193 5.452-1.193 7.52 0l12.054 6.96c2.068 1.193 2.068 3.148 0 4.34l-23.374 13.496c-2.067 1.194-5.451 1.194-7.52 0l-12.053-6.96z" stroke="#33475C" stroke-width="5" stroke-linecap="round" stroke-linejoin="round"/>
        <path d="M68.759 124.992c-2.068-1.194-2.068-3.148 0-4.342l23.373-13.495c2.068-1.193 5.452-1.193 7.52 0l12.054 6.96c2.068 1.193 2.068 3.148 0 4.34l-23.374 13.496c-2.067 1.194-5.451 1.194-7.52 0l-12.053-6.96zM27.445 116.106c-2.068-1.194-2.068-3.148 0-4.342l51.677-29.836c2.067-1.193 5.451-1.193 7.52 0l17.673 10.204c2.068 1.195 2.068 3.148 0 4.342L52.638 126.31c-2.068 1.194-5.452 1.194-7.519 0l-17.674-10.203z" stroke="#33475C" stroke-width="5" stroke-linecap="round" stroke-linejoin="round"/>
        <path d="M27.445 116.106c-2.068-1.194-2.068-3.148 0-4.342l51.677-29.836c2.067-1.193 5.451-1.193 7.52 0l17.673 10.204c2.068 1.195 2.068 3.148 0 4.342L52.638 126.31c-2.068 1.194-5.452 1.194-7.519 0l-17.674-10.203zM16.041 109.55l9.104-5.257L44.72 92.99l30.518-17.618 3.445 1.989-59.197 34.177zM4.125 114.63c-.797-.778-1.625-2.112-1.625-4.317V50.86c0-2.816 1.995-6.272 4.434-7.68l15.139-8.74 19.574-11.302 19.575-11.301 15.139-8.74c1.279-.74 2.432-.768 3.243-.228l.009-.002 3.063 2.037-1.881 1.08V68.343l-19.573 11.3-19.575 11.3-19.574 11.302-16.501 9.528v3.82l-.852-.567-.595-.396z" stroke="#33475C" stroke-width="5" stroke-linecap="round" stroke-linejoin="round"/>
        <path d="M25.145 126.894l19.574 11.302 15.142 8.741c2.438 1.407 6.429 1.407 8.867 0l15.14-8.74 19.573-11.302 19.573-11.3 15.14-8.742c2.439-1.408 2.439-3.712 0-5.12l-15.14-8.74L83.868 70.39 44.72 92.992l-19.575 11.3-19.573 11.301 19.573 11.301" stroke="#33475C" stroke-width="5" stroke-linecap="round" stroke-linejoin="round"/>
        <path d="M64.293 81.691L44.72 92.992l-19.574 11.301-19.574 11.3V52.91c0-2.818 1.995-6.274 4.434-7.682l15.14-8.74 19.574-11.3 19.573-11.302 15.14-8.74c2.438-1.409 4.433-.258 4.434 2.558V70.39L64.293 81.691M68.759 124.992c-2.068-1.194-2.068-3.148 0-4.342l23.373-13.495c2.068-1.193 5.452-1.193 7.52 0l12.054 6.96c2.068 1.193 2.068 3.148 0 4.34l-23.374 13.496c-2.067 1.194-5.451 1.194-7.52 0l-12.053-6.96z" stroke="#33475C" stroke-width="5" stroke-linecap="round" stroke-linejoin="round"/>
        <path d="M68.759 124.992c-2.068-1.194-2.068-3.148 0-4.342l23.373-13.495c2.068-1.193 5.452-1.193 7.52 0l12.054 6.96c2.068 1.193 2.068 3.148 0 4.34l-23.374 13.496c-2.067 1.194-5.451 1.194-7.52 0l-12.053-6.96zM79.352 64.352V14.8c-.002-1.687-1.178-2.389-2.612-1.56L53.439 26.692l-39.49 22.8c-1.437.831-2.611 2.89-2.611 4.58v49.548c0 1.69 1.176 2.392 2.613 1.563l62.789-36.25c1.436-.83 2.612-2.892 2.612-4.58z" stroke="#33475C" stroke-width="5" stroke-linecap="round" stroke-linejoin="round"/>
        <path d="M53.438 26.692l-39.49 22.8c-1.436.831-2.61 2.89-2.61 4.58v27.413L79.35 42.217V14.8c-.002-1.686-1.177-2.388-2.612-1.559l-23.3 13.452z" stroke="#33475C" stroke-width="5" stroke-linecap="round" stroke-linejoin="round"/>
        <path d="M76.74 13.239L13.95 49.49c-1.437.83-2.612 2.891-2.612 4.58v2.347l68.013-39.268v-2.346c0-1.689-1.175-2.393-2.612-1.564z" stroke="#33475C" stroke-width="5" stroke-linecap="round" stroke-linejoin="round"/>
        <path d="M79.352 64.352V14.8c-.002-1.687-1.178-2.389-2.612-1.56L53.439 26.692l-39.49 22.8c-1.437.831-2.611 2.89-2.611 4.58v49.548c0 1.69 1.176 2.392 2.613 1.563l62.789-36.25c1.436-.83 2.612-2.892 2.612-4.58z" stroke="#33475C" stroke-width="5" stroke-linecap="round" stroke-linejoin="round"/>
        <path d="M46.132 53.842c3.149-1.819 5.727-6.282 5.727-9.92 0-3.636-2.578-5.123-5.727-3.305-3.15 1.819-5.727 6.283-5.727 9.919s2.578 5.123 5.727 3.306" stroke="#33475C" stroke-width="5" stroke-linecap="round" stroke-linejoin="round"/>
        <path d="M43.394 59.487c2.51-1.448 4.562-5.005 4.562-7.902 0-2.898-2.053-4.083-4.563-2.634-2.51 1.448-4.562 5.005-4.562 7.902 0 2.898 2.052 4.083 4.563 2.634M15.06 83.932l23.533-13.704M15.06 86.822l14.888-8.596M66.76 54.181l8.87-5.165M60.741 60.655l14.89-8.596M66.76 63.231l8.87-5.165M68.186 64.94l7.443-4.336M66.76 68.308l8.87-5.165M69.194 69.43l6.436-3.749M52.252 82.49V70.326c0-.605-.43-.852-.953-.55L16.012 90.15c-.524.302-.952 1.044-.952 1.65v12.163L52.252 82.49zM56.19 57.6v20.604M27.445 116.106c-2.068-1.194-2.068-3.148 0-4.342l51.677-29.836c2.067-1.193 5.451-1.193 7.52 0l17.673 10.204c2.068 1.195 2.068 3.148 0 4.342L52.638 126.31c-2.068 1.194-5.452 1.194-7.519 0l-17.674-10.203z" stroke="#33475C" stroke-width="5" stroke-linecap="round" stroke-linejoin="round"/>
        <path d="M27.445 116.106c-2.068-1.194-2.068-3.148 0-4.342l51.677-29.836c2.067-1.193 5.451-1.193 7.52 0l17.673 10.204c2.068 1.195 2.068 3.148 0 4.342L52.638 126.31c-2.068 1.194-5.452 1.194-7.519 0l-17.674-10.203zM16.041 109.55l9.104-5.257L44.72 92.99l30.518-17.618 3.445 1.989-59.197 34.177z" stroke="#33475C" stroke-width="5" stroke-linecap="round" stroke-linejoin="round"/>
        <path d="M80.269 63.048c0-1.65-1.17-2.325-2.6-1.5L30.076 89.026c-1.428.825-2.598 2.85-2.598 4.5v16.072c0 1.65 1.17 2.325 2.598 1.5l47.594-27.48c1.43-.823 2.599-2.848 2.599-4.5v-16.07z" stroke="#33475C" stroke-width="5" stroke-linecap="round" stroke-linejoin="round"/>
        <path d="M80.269 63.048c0-1.65-1.17-2.325-2.6-1.5L30.076 89.026c-1.428.825-2.598 2.85-2.598 4.5v16.072c0 1.65 1.17 2.325 2.598 1.5l47.594-27.48c1.43-.823 2.599-2.848 2.599-4.5v-16.07z" stroke="#33475C" stroke-width="5" stroke-linecap="round" stroke-linejoin="round"/>
        <path d="M42.254 93.432c0-3.563-2.524-5.02-5.61-3.238-3.085 1.781-5.61 6.153-5.61 9.716 0 3.563 2.525 5.02 5.61 3.24 3.086-1.782 5.61-6.155 5.61-9.718z" stroke="#33475C" stroke-width="5" stroke-linecap="round" stroke-linejoin="round"/>
        <path d="M34.981 97.061c0-.485-.344-.684-.765-.44-.42.242-.764.837-.764 1.324 0 .485.344.684.764.441.421-.243.765-.839.765-1.325zM39.527 94.452c0-.485-.344-.685-.765-.441-.42.242-.764.838-.764 1.324 0 .486.343.684.764.44.421-.241.765-.838.765-1.323zM34.217 100.56c.469.398 1.177.428 1.976-.033.797-.46 1.505-1.308 1.974-2.248M46.096 87.968c-.506 0-.763-.303-.763-.9 0-1.19 1.075-2.817 2.348-3.552l23.975-13.842c.394-.228.77-.349 1.086-.349.505 0 .762.303.762.901 0 1.19-1.075 2.817-2.348 3.552L47.18 87.62c-.395.228-.77.349-1.085.349z" stroke="#33475C" stroke-width="5" stroke-linecap="round" stroke-linejoin="round"/>
        <path d="M72.741 68.827c-.392 0-.849.133-1.336.414L47.43 83.083c-1.428.826-2.597 2.619-2.597 3.984 0 .9.508 1.4 1.262 1.4.391 0 .848-.133 1.335-.414L71.405 74.21c1.43-.825 2.6-2.618 2.6-3.985 0-.9-.509-1.4-1.264-1.4zm0 1c.146 0 .263 0 .263.399 0 1.016-.98 2.474-2.099 3.119l-23.974 13.84c-.424.246-.706.283-.836.283-.146 0-.262 0-.262-.401 0-1.015.98-2.472 2.097-3.117l23.975-13.842c.424-.245.706-.281.836-.281zM46.095 96.66c-.506 0-.762-.304-.762-.9 0-1.191 1.075-2.817 2.348-3.552l15.417-8.901c.394-.227.769-.347 1.085-.347.506 0 .763.303.763.899 0 1.19-1.076 2.818-2.348 3.552l-15.417 8.9c-.395.228-.771.349-1.086.349z" stroke="#33475C" stroke-width="5" stroke-linecap="round" stroke-linejoin="round"/>
        <path d="M64.183 82.46c-.391 0-.848.133-1.335.415l-15.417 8.9c-1.43.826-2.598 2.619-2.598 3.986 0 .9.508 1.399 1.263 1.399.39 0 .848-.134 1.335-.415l15.417-8.9c1.429-.826 2.598-2.62 2.598-3.986 0-.9-.508-1.4-1.263-1.4zm0 1c.146 0 .263 0 .263.399 0 1.017-.981 2.474-2.098 3.119l-15.417 8.9c-.424.246-.705.282-.835.282-.146 0-.263 0-.263-.4 0-1.016.98-2.474 2.098-3.118l15.417-8.901c.424-.245.705-.281.835-.281zM97.192 20.766c0-1.649-1.17-2.324-2.599-1.5L47 46.746c-1.429.824-2.598 2.85-2.598 4.5v16.071c0 1.65 1.17 2.325 2.598 1.5l47.593-27.479c1.43-.824 2.6-2.849 2.6-4.5V20.766z" stroke="#33475C" stroke-width="5" stroke-linecap="round" stroke-linejoin="round"/>
        <path d="M97.192 20.766c0-1.649-1.17-2.324-2.599-1.5L47 46.746c-1.429.824-2.598 2.85-2.598 4.5v16.071c0 1.65 1.17 2.325 2.598 1.5l47.593-27.479c1.43-.824 2.6-2.849 2.6-4.5V20.766z" stroke="#33475C" stroke-width="5" stroke-linecap="round" stroke-linejoin="round"/>
        <path d="M59.178 51.152c0-3.563-2.524-5.02-5.61-3.238-3.085 1.781-5.61 6.153-5.61 9.716 0 3.562 2.525 5.02 5.61 3.24 3.086-1.782 5.61-6.155 5.61-9.718z" stroke="#33475C" stroke-width="5" stroke-linecap="round" stroke-linejoin="round"/>
        <path d="M51.905 54.781c0-.485-.344-.685-.765-.441-.42.243-.764.838-.764 1.325 0 .485.344.684.764.441.421-.243.765-.839.765-1.325zM56.451 52.172c0-.486-.344-.685-.765-.441-.42.242-.764.838-.764 1.324 0 .486.343.684.764.44.421-.241.765-.838.765-1.323zM51.14 58.279c.47.398 1.178.429 1.977-.032.797-.462 1.505-1.308 1.974-2.248M63.02 45.687c-.507 0-.764-.303-.764-.9 0-1.19 1.075-2.817 2.349-3.552l23.974-13.842c.395-.227.77-.348 1.086-.348.505 0 .762.303.762.901 0 1.19-1.075 2.816-2.348 3.552L64.105 45.34c-.396.228-.77.348-1.086.348z" stroke="#33475C" stroke-width="5" stroke-linecap="round" stroke-linejoin="round"/>
        <path d="M89.665 26.546c-.392 0-.849.135-1.336.416L64.354 40.804c-1.428.824-2.597 2.617-2.597 3.984 0 .9.507 1.4 1.262 1.4.391 0 .848-.134 1.335-.415L88.329 31.93c1.429-.825 2.599-2.618 2.599-3.985 0-.9-.508-1.4-1.263-1.4zm0 1c.146 0 .263 0 .263.4 0 1.016-.981 2.473-2.099 3.119l-23.975 13.84c-.423.246-.705.283-.835.283-.147 0-.262 0-.262-.4 0-1.016.98-2.473 2.097-3.12l23.975-13.841c.425-.244.706-.281.836-.281zM63.02 54.379c-.507 0-.764-.303-.764-.9 0-1.19 1.075-2.816 2.349-3.551l15.416-8.901c.394-.227.77-.347 1.085-.347.507 0 .764.303.764.899 0 1.19-1.077 2.817-2.349 3.552l-15.416 8.9c-.396.228-.77.348-1.086.348z" stroke="#33475C" stroke-width="5" stroke-linecap="round" stroke-linejoin="round"/>
        <path d="M81.106 40.178c-.39 0-.848.136-1.335.416l-15.417 8.9c-1.429.827-2.598 2.62-2.598 3.986 0 .9.508 1.4 1.263 1.4.391 0 .848-.136 1.335-.416l15.417-8.9c1.43-.825 2.598-2.617 2.598-3.986 0-.9-.508-1.4-1.263-1.4zm0 1c.147 0 .263 0 .263.4 0 1.016-.98 2.473-2.098 3.12l-15.416 8.9c-.425.245-.706.282-.836.282-.146 0-.263 0-.263-.4 0-1.016.981-2.473 2.098-3.118l15.417-8.901c.424-.245.705-.282.835-.282zM95.206 71.618c0-1.65-1.169-2.325-2.598-1.5L45.015 97.597c-1.43.825-2.599 2.849-2.599 4.5v16.072c0 1.65 1.169 2.325 2.599 1.5l47.593-27.48c1.429-.824 2.598-2.848 2.598-4.5V71.619z" stroke="#33475C" stroke-width="5" stroke-linecap="round" stroke-linejoin="round"/>
        <path d="M95.206 71.618c0-1.65-1.169-2.325-2.598-1.5L45.015 97.597c-1.43.825-2.599 2.849-2.599 4.5v16.072c0 1.65 1.169 2.325 2.599 1.5l47.593-27.48c1.429-.824 2.598-2.848 2.598-4.5V71.619z" stroke="#33475C" stroke-width="5" stroke-linecap="round" stroke-linejoin="round"/>
        <path d="M57.191 102.004c0-3.563-2.524-5.02-5.609-3.238-3.086 1.78-5.61 6.153-5.61 9.716 0 3.562 2.524 5.02 5.61 3.239 3.085-1.782 5.61-6.154 5.61-9.717z" stroke="#33475C" stroke-width="5" stroke-linecap="round" stroke-linejoin="round"/>
        <path d="M49.92 105.633c0-.485-.345-.685-.765-.441-.421.243-.765.838-.765 1.324 0 .486.344.684.765.442.42-.243.765-.84.765-1.325zM54.466 103.023c0-.486-.345-.685-.766-.442-.42.243-.764.84-.764 1.325s.344.684.764.441c.42-.243.766-.839.766-1.324zM49.155 109.13c.47.399 1.176.43 1.975-.031.798-.462 1.505-1.31 1.974-2.248M61.032 96.539c-.505 0-.762-.303-.762-.9 0-1.191 1.075-2.817 2.35-3.552l23.974-13.842c.394-.227.77-.348 1.084-.348.506 0 .763.303.763.9 0 1.19-1.075 2.817-2.347 3.553L62.12 96.19c-.396.228-.77.349-1.086.349z" stroke="#33475C" stroke-width="5" stroke-linecap="round" stroke-linejoin="round"/>
        <path d="M87.679 77.397c-.391 0-.848.134-1.335.415L62.369 91.654c-1.43.825-2.598 2.618-2.598 3.985 0 .901.508 1.4 1.262 1.4.39 0 .848-.134 1.336-.415l23.975-13.842c1.429-.825 2.598-2.619 2.598-3.985 0-.9-.508-1.4-1.263-1.4zm0 1c.146 0 .263 0 .263.4 0 1.016-.981 2.473-2.098 3.118L61.869 95.756c-.423.246-.706.283-.836.283-.146 0-.262 0-.262-.4 0-1.016.98-2.474 2.098-3.119l23.974-13.842c.425-.244.706-.28.836-.28zM61.033 105.23c-.506 0-.763-.303-.763-.899 0-1.19 1.075-2.817 2.35-3.552l15.415-8.9c.394-.228.77-.349 1.086-.349.506 0 .762.304.762.9 0 1.191-1.076 2.817-2.348 3.552l-15.416 8.9c-.395.228-.77.348-1.086.348z" stroke="#33475C" stroke-width="5" stroke-linecap="round" stroke-linejoin="round"/>
        <path d="M79.121 91.03c-.392 0-.849.135-1.336.416l-15.416 8.9c-1.43.825-2.599 2.618-2.599 3.985 0 .9.508 1.4 1.263 1.4.391 0 .848-.135 1.336-.416l15.416-8.9c1.429-.825 2.598-2.618 2.598-3.985 0-.9-.508-1.4-1.262-1.4zm0 1c.146 0 .262 0 .262.4 0 1.016-.981 2.473-2.098 3.119l-15.416 8.9c-.424.245-.706.282-.836.282-.146 0-.263 0-.263-.4 0-1.016.981-2.473 2.099-3.118l15.416-8.902c.424-.244.705-.281.836-.281z" stroke="#33475C" stroke-width="5" stroke-linecap="round" stroke-linejoin="round"/>
        <path d="M109.981 80.19c0-1.65-1.169-2.326-2.598-1.5L59.79 106.167c-1.429.824-2.598 2.85-2.598 4.5v16.072c0 1.65 1.17 2.324 2.598 1.5l47.594-27.479c1.43-.825 2.598-2.85 2.598-4.5V80.19z" stroke="#33475C" stroke-width="5" stroke-linecap="round" stroke-linejoin="round"/>
        <path d="M109.981 80.19c0-1.65-1.169-2.326-2.598-1.5L59.79 106.167c-1.429.824-2.598 2.85-2.598 4.5v16.072c0 1.65 1.17 2.324 2.598 1.5l47.594-27.479c1.43-.825 2.598-2.85 2.598-4.5V80.19z" stroke="#33475C" stroke-width="5" stroke-linecap="round" stroke-linejoin="round"/>
        <path d="M71.967 110.575c0-3.563-2.524-5.021-5.61-3.24-3.085 1.782-5.61 6.155-5.61 9.718 0 3.562 2.525 5.019 5.61 3.238 3.086-1.781 5.61-6.153 5.61-9.716z" stroke="#33475C" stroke-width="5" stroke-linecap="round" stroke-linejoin="round"/>
        <path d="M64.695 114.204c0-.486-.345-.685-.765-.441-.42.242-.765.838-.765 1.324 0 .486.344.684.765.44.42-.241.765-.838.765-1.323zM69.241 111.594c0-.485-.345-.685-.766-.441-.42.242-.764.837-.764 1.325 0 .485.344.683.764.44.421-.243.766-.839.766-1.325zM63.93 117.702c.469.398 1.177.428 1.976-.033.798-.461 1.505-1.308 1.974-2.247M75.808 105.11c-.506 0-.763-.304-.763-.9 0-1.19 1.076-2.817 2.35-3.552l23.974-13.842c.394-.228.77-.348 1.085-.348.506 0 .763.303.763.9 0 1.19-1.076 2.816-2.349 3.552l-23.974 13.841c-.395.228-.77.348-1.086.348z" stroke="#33475C" stroke-width="5" stroke-linecap="round" stroke-linejoin="round"/>
        <path d="M102.454 85.968c-.39 0-.848.135-1.335.415l-23.975 13.843c-1.429.823-2.598 2.617-2.598 3.984 0 .9.508 1.4 1.262 1.4.391 0 .848-.135 1.336-.415l23.975-13.842c1.43-.825 2.598-2.617 2.598-3.985 0-.9-.508-1.4-1.263-1.4zm0 1c.146 0 .263 0 .263.4 0 1.016-.98 2.474-2.098 3.12l-23.975 13.84c-.424.245-.706.282-.836.282-.146 0-.262 0-.262-.4 0-1.015.98-2.472 2.098-3.118l23.975-13.843c.424-.245.705-.281.835-.281zM75.808 113.802c-.506 0-.763-.303-.763-.9 0-1.19 1.076-2.817 2.35-3.552l15.416-8.901c.393-.227.768-.347 1.084-.347.507 0 .764.302.764.898 0 1.192-1.077 2.819-2.349 3.553l-15.416 8.9c-.395.228-.77.349-1.086.349z" stroke="#33475C" stroke-width="5" stroke-linecap="round" stroke-linejoin="round"/>
        <path d="M93.896 99.601c-.392 0-.849.134-1.336.415l-15.416 8.9c-1.43.827-2.599 2.62-2.599 3.985 0 .9.508 1.4 1.263 1.4.391 0 .848-.134 1.336-.415l15.416-8.9c1.43-.825 2.598-2.618 2.598-3.986 0-.9-.508-1.399-1.262-1.399zm0 1c.146 0 .262 0 .262.4 0 1.016-.98 2.473-2.098 3.12l-15.416 8.9c-.424.243-.706.28-.836.28-.146 0-.263 0-.263-.4 0-1.016.981-2.473 2.1-3.117l15.415-8.9c.424-.247.705-.283.836-.283z" stroke="#33475C" stroke-width="5" stroke-linecap="round" stroke-linejoin="round"/>
        <path d="M124.865 88.76c0-1.65-1.17-2.325-2.599-1.5l-47.593 27.478c-1.429.826-2.598 2.85-2.598 4.5v16.072c0 1.65 1.17 2.326 2.598 1.5l47.593-27.478c1.43-.825 2.6-2.85 2.6-4.5V88.76z" stroke="#33475C" stroke-width="5" stroke-linecap="round" stroke-linejoin="round"/>
        <path d="M124.865 88.76c0-1.65-1.17-2.325-2.599-1.5l-47.593 27.478c-1.429.826-2.598 2.85-2.598 4.5v16.072c0 1.65 1.17 2.326 2.598 1.5l47.593-27.478c1.43-.825 2.6-2.85 2.6-4.5V88.76z" stroke="#33475C" stroke-width="5" stroke-linecap="round" stroke-linejoin="round"/>
        <path d="M86.85 119.145c0-3.563-2.524-5.02-5.61-3.238-3.084 1.781-5.61 6.153-5.61 9.716 0 3.563 2.526 5.02 5.61 3.24 3.086-1.782 5.61-6.155 5.61-9.718z" stroke="#33475C" stroke-width="5" stroke-linecap="round" stroke-linejoin="round"/>
        <path d="M79.578 122.774c0-.485-.344-.684-.765-.44-.42.242-.764.837-.764 1.324 0 .485.343.684.764.441.421-.243.765-.839.765-1.325zM84.124 120.165c0-.486-.344-.685-.765-.441-.421.242-.764.838-.764 1.324 0 .486.343.684.764.44.421-.241.765-.838.765-1.323zM78.813 126.272c.47.4 1.176.43 1.975-.032.798-.46 1.506-1.308 1.974-2.248M90.692 113.68c-.506 0-.763-.303-.763-.899 0-1.19 1.075-2.818 2.348-3.553l23.975-13.84c.394-.229.77-.35 1.086-.35.505 0 .761.303.761.901 0 1.19-1.075 2.816-2.347 3.552l-23.975 13.841c-.395.228-.77.348-1.085.348z" stroke="#33475C" stroke-width="5" stroke-linecap="round" stroke-linejoin="round"/>
        <path d="M117.338 94.54c-.392 0-.85.133-1.336.414l-23.975 13.842c-1.428.825-2.597 2.619-2.597 3.984 0 .9.508 1.4 1.262 1.4.39 0 .848-.133 1.335-.414l23.975-13.842c1.429-.825 2.598-2.618 2.598-3.986 0-.9-.507-1.398-1.262-1.398zm0 1c.146 0 .262 0 .262.398 0 1.017-.981 2.475-2.098 3.12l-23.975 13.84c-.423.246-.705.283-.835.283-.147 0-.262 0-.262-.401 0-1.015.98-2.472 2.097-3.117l23.975-13.842c.424-.245.705-.281.836-.281zM90.691 122.373c-.506 0-.762-.304-.762-.9 0-1.191 1.075-2.817 2.348-3.552l15.416-8.901c.394-.227.77-.347 1.086-.347.506 0 .763.303.763.899 0 1.19-1.076 2.817-2.349 3.552l-15.416 8.9c-.395.228-.77.349-1.086.349z" stroke="#33475C" stroke-width="5" stroke-linecap="round" stroke-linejoin="round"/>
        <path d="M108.78 108.173c-.392 0-.849.133-1.337.415l-15.416 8.9c-1.429.826-2.598 2.619-2.598 3.986 0 .9.508 1.399 1.262 1.399.392 0 .85-.134 1.336-.415l15.416-8.9c1.43-.826 2.6-2.62 2.6-3.986 0-.9-.509-1.4-1.264-1.4zm0 1c.145 0 .262 0 .262.399 0 1.017-.98 2.474-2.099 3.119l-15.416 8.9c-.424.246-.705.282-.836.282-.146 0-.262 0-.262-.4 0-1.016.981-2.474 2.098-3.118l15.417-8.901c.423-.245.705-.281.835-.281z" stroke="#33475C" stroke-width="5" stroke-linecap="round" stroke-linejoin="round"/>
        <path d="M7.346 120.714c-.976-.563-1.773-1.945-1.773-3.072v-2.048l5.494-1.264-.205 2.307 14.284-8.247v-.001l19.574-11.3 39.147-22.603 39.148 22.603 13.283 7.669v-.642h3.686v4.254h-.003c.008.935-.6 1.87-1.826 2.579l-15.14 8.742-19.573 11.3h-.001l-19.574 11.3-15.14 8.742c-2.438 1.408-6.428 1.408-8.866 0l-15.141-8.741-19.574-11.301-17.8-10.277z" fill="#CBD6E3"/>
        <path d="M7.346 120.714c-.976-.563-1.773-1.945-1.773-3.072v-2.048l5.494-1.264-.205 2.307 14.284-8.247v-.001l19.574-11.3 39.147-22.603 39.148 22.603 13.283 7.669v-.642h3.686v4.254h-.003c.008.935-.6 1.87-1.826 2.579l-15.14 8.742-19.573 11.3h-.001l-19.574 11.3-15.14 8.742c-2.438 1.408-6.428 1.408-8.866 0l-15.141-8.741-19.574-11.301-17.8-10.277z" stroke="#33475C" stroke-linecap="round" stroke-linejoin="round"/>
        <path d="M33.048 110.087h.014-.014z" fill="#33475C"/>
        <path d="M76.69 13.252c1.464-.845 2.661-.153 2.661 1.536v49.55c0 1.689-1.197 3.763-2.66 4.607l-63.943 36.917c-1.463.845-2.66.155-2.66-1.535v-49.55c0-1.69 1.197-3.763 2.66-4.608L76.69 13.252zM68.759 124.992c-2.068-1.194-2.068-3.148 0-4.342l23.373-13.495c2.068-1.193 5.452-1.193 7.52 0l12.054 6.96c2.068 1.193 2.068 3.148 0 4.34l-23.374 13.496c-2.067 1.194-5.451 1.194-7.52 0l-12.053-6.96z" stroke="#33475C" stroke-width="5" stroke-linecap="round" stroke-linejoin="round"/>
        <path d="M68.759 124.992c-2.068-1.194-2.068-3.148 0-4.342l23.373-13.495c2.068-1.193 5.452-1.193 7.52 0l12.054 6.96c2.068 1.193 2.068 3.148 0 4.34l-23.374 13.496c-2.067 1.194-5.451 1.194-7.52 0l-12.053-6.96zM27.445 116.106c-2.068-1.194-2.068-3.148 0-4.342l51.677-29.836c2.067-1.193 5.451-1.193 7.52 0l17.673 10.204c2.068 1.195 2.068 3.148 0 4.342L52.638 126.31c-2.068 1.194-5.452 1.194-7.519 0l-17.674-10.203z" stroke="#33475C" stroke-width="5" stroke-linecap="round" stroke-linejoin="round"/>
        <path d="M27.445 116.106c-2.068-1.194-2.068-3.148 0-4.342l51.677-29.836c2.067-1.193 5.451-1.193 7.52 0l17.673 10.204c2.068 1.195 2.068 3.148 0 4.342L52.638 126.31c-2.068 1.194-5.452 1.194-7.519 0l-17.674-10.203zM16.041 109.55l9.104-5.257L44.72 92.99l30.518-17.618 3.445 1.989-59.197 34.177z" stroke="#33475C" stroke-width="5" stroke-linecap="round" stroke-linejoin="round"/>
        <path d="M4.125 114.63c-.797-.778-1.625-2.112-1.625-4.317V50.86c0-2.816 1.995-6.272 4.434-7.68l15.139-8.74 19.574-11.302 19.575-11.301 15.139-8.74c1.279-.74 2.432-.768 3.243-.228l.009-.002 3.063 2.037-1.881 1.08V68.343l-19.573 11.3-19.575 11.3-19.574 11.302-16.501 9.528v3.82l-.852-.567-.595-.396z" fill="#CBD6E3"/>
        <path d="M4.125 114.63c-.797-.778-1.625-2.112-1.625-4.317V50.86c0-2.816 1.995-6.272 4.434-7.68l15.139-8.74 19.574-11.302 19.575-11.301 15.139-8.74c1.279-.74 2.432-.768 3.243-.228l.009-.002 3.063 2.037-1.881 1.08V68.343l-19.573 11.3-19.575 11.3-19.574 11.302-16.501 9.528v3.82l-.852-.567-.595-.396z" stroke="#33475C" stroke-linecap="round" stroke-linejoin="round"/>
        <path d="M25.145 126.894l19.574 11.302 15.142 8.741c2.438 1.407 6.428 1.407 8.867 0l15.14-8.74 19.573-11.302 19.573-11.3 15.14-8.742c2.439-1.408 2.439-3.712 0-5.12l-15.14-8.74L83.868 70.39 44.72 92.992l-19.575 11.3-19.572 11.301 19.572 11.301" fill="#E4EAEF"/>
        <path d="M25.145 126.894l19.574 11.302 15.142 8.741c2.438 1.407 6.428 1.407 8.867 0l15.14-8.74 19.573-11.302 19.573-11.3 15.14-8.742c2.439-1.408 2.439-3.712 0-5.12l-15.14-8.74L83.868 70.39 44.72 92.992l-19.575 11.3-19.572 11.301 19.572 11.301" stroke="#33475C" stroke-linecap="round" stroke-linejoin="round"/>
        <path d="M64.293 81.691L44.72 92.992l-19.574 11.301-19.574 11.3V52.91c0-2.818 1.995-6.274 4.434-7.682l15.14-8.74 19.574-11.3 19.573-11.302 15.14-8.74c2.438-1.409 4.433-.258 4.434 2.558V70.39L64.293 81.691" fill="#32475C"/>
        <path d="M64.293 81.691L44.72 92.992l-19.574 11.301-19.574 11.3V52.91c0-2.818 1.995-6.274 4.434-7.682l15.14-8.74 19.574-11.3 19.573-11.302 15.14-8.74c2.438-1.409 4.433-.258 4.434 2.558V70.39L64.293 81.691" stroke="#33475C" stroke-linecap="round" stroke-linejoin="round"/>
        <path d="M68.759 124.992c-2.068-1.194-2.068-3.148 0-4.342l23.373-13.495c2.068-1.193 5.452-1.193 7.52 0l12.054 6.96c2.068 1.193 2.068 3.148 0 4.34l-23.374 13.496c-2.067 1.194-5.451 1.194-7.52 0l-12.053-6.96z" fill="#EAF0F6"/>
        <path d="M68.759 124.992c-2.068-1.194-2.068-3.148 0-4.342l23.373-13.495c2.068-1.193 5.452-1.193 7.52 0l12.054 6.96c2.068 1.193 2.068 3.148 0 4.34l-23.374 13.496c-2.067 1.194-5.451 1.194-7.52 0l-12.053-6.96z" stroke="#33475C"/>
        <path d="M79.352 64.352V14.8c-.002-1.687-1.178-2.389-2.612-1.56L53.439 26.692l-39.49 22.8c-1.437.831-2.611 2.89-2.611 4.58v49.548c0 1.69 1.176 2.392 2.613 1.563l62.789-36.25c1.436-.83 2.612-2.892 2.612-4.58" fill="#FFF"/>
        <path d="M79.352 64.352V14.8c-.002-1.687-1.178-2.389-2.612-1.56L53.439 26.692l-39.49 22.8c-1.437.831-2.611 2.89-2.611 4.58v49.548c0 1.69 1.176 2.392 2.613 1.563l62.789-36.25c1.436-.83 2.612-2.892 2.612-4.58z" stroke="#33475C" stroke-linecap="round" stroke-linejoin="round"/>
        <path d="M53.438 26.692l-39.49 22.8c-1.436.831-2.61 2.89-2.61 4.58v27.413L79.35 42.217V14.8c-.002-1.686-1.177-2.388-2.612-1.559l-23.3 13.452z" fill="#E5F5F8"/>
        <path d="M76.74 13.239L13.95 49.49c-1.437.83-2.612 2.891-2.612 4.58v2.347l68.013-39.268v-2.346c0-1.689-1.175-2.393-2.612-1.564" fill="#CBD6E3"/>
        <path d="M76.74 13.239L13.95 49.49c-1.437.83-2.612 2.891-2.612 4.58v2.347l68.013-39.268v-2.346c0-1.689-1.175-2.393-2.612-1.564z" stroke="#33475C" stroke-linecap="round" stroke-linejoin="round"/>
        <path d="M79.352 64.352V14.8c-.002-1.687-1.178-2.389-2.612-1.56L53.439 26.692l-39.49 22.8c-1.437.831-2.611 2.89-2.611 4.58v49.548c0 1.69 1.176 2.392 2.613 1.563l62.789-36.25c1.436-.83 2.612-2.892 2.612-4.58z" stroke="#33475C" stroke-linecap="round" stroke-linejoin="round"/>
        <path d="M46.132 53.842c3.149-1.819 5.727-6.282 5.727-9.92 0-3.636-2.578-5.123-5.727-3.305-3.15 1.819-5.727 6.283-5.727 9.919s2.578 5.123 5.727 3.306" fill="#00A4BF"/>
        <path d="M43.394 59.487c2.51-1.448 4.562-5.005 4.562-7.902 0-2.898-2.053-4.083-4.563-2.634-2.51 1.448-4.562 5.005-4.562 7.902 0 2.898 2.052 4.083 4.563 2.634" fill="#FF8F52"/>
        <path d="M15.06 83.932l23.533-13.704" fill="#33475C"/>
        <path d="M15.06 83.932l23.533-13.704" stroke="#EAF0F6" stroke-linecap="round" stroke-linejoin="round"/>
        <path d="M15.06 86.822l14.888-8.596" fill="#33475C"/>
        <path d="M15.06 86.822l14.888-8.596" stroke="#EAF0F6" stroke-linecap="round" stroke-linejoin="round"/>
        <path d="M66.76 54.181l8.87-5.165" fill="#33475C"/>
        <path d="M66.76 54.181l8.87-5.165" stroke="#EAF0F6" stroke-linecap="round" stroke-linejoin="round"/>
        <path d="M60.741 60.655l14.89-8.596" fill="#33475C"/>
        <path d="M60.741 60.655l14.89-8.596" stroke="#EAF0F6" stroke-linecap="round" stroke-linejoin="round"/>
        <path d="M66.76 63.231l8.87-5.165" fill="#33475C"/>
        <path d="M66.76 63.231l8.87-5.165" stroke="#EAF0F6" stroke-linecap="round" stroke-linejoin="round"/>
        <path d="M68.186 64.94l7.443-4.336" fill="#33475C"/>
        <path d="M68.186 64.94l7.443-4.336" stroke="#EAF0F6" stroke-linecap="round" stroke-linejoin="round"/>
        <path d="M66.76 68.308l8.87-5.165" fill="#33475C"/>
        <path d="M66.76 68.308l8.87-5.165" stroke="#EAF0F6" stroke-linecap="round" stroke-linejoin="round"/>
        <path d="M69.194 69.43l6.436-3.749" fill="#33475C"/>
        <path d="M69.194 69.43l6.436-3.749" stroke="#EAF0F6" stroke-linecap="round" stroke-linejoin="round"/>
        <path d="M52.252 82.49V70.326c0-.605-.43-.852-.953-.55L16.012 90.15c-.524.302-.952 1.044-.952 1.65v12.163L52.252 82.49z" fill="#E5F5F8"/>
        <path d="M56.19 57.6v20.604" fill="#33475C"/>
        <path d="M56.19 57.6v20.604" stroke="#E5F5F8" stroke-width=".5" stroke-linecap="round" stroke-linejoin="round"/>
        <path d="M27.445 116.106c-2.068-1.194-2.068-3.148 0-4.342l51.677-29.836c2.067-1.193 5.451-1.193 7.52 0l17.673 10.204c2.068 1.195 2.068 3.148 0 4.342L52.638 126.31c-2.068 1.194-5.452 1.194-7.519 0l-17.674-10.203z" fill="#CBD6E3"/>
        <path d="M27.445 116.106c-2.068-1.194-2.068-3.148 0-4.342l51.677-29.836c2.067-1.193 5.451-1.193 7.52 0l17.673 10.204c2.068 1.195 2.068 3.148 0 4.342L52.638 126.31c-2.068 1.194-5.452 1.194-7.519 0l-17.674-10.203z" stroke="#33475C" stroke-linecap="round" stroke-linejoin="round"/>
        <path fill="#415A77" d="M16.041 109.55l9.104-5.257L44.72 92.99l30.518-17.618 3.445 1.989-59.197 34.177z"/>
        <path stroke="#33475C" stroke-linecap="round" stroke-linejoin="round" d="M16.041 109.55l9.104-5.257L44.72 92.99l30.518-17.618 3.445 1.989-59.197 34.177z"/>
        <path d="M80.269 63.048c0-1.65-1.17-2.325-2.6-1.5L30.076 89.026c-1.428.825-2.598 2.85-2.598 4.5v16.072c0 1.65 1.17 2.325 2.598 1.5l47.594-27.48c1.43-.823 2.599-2.848 2.599-4.5v-16.07z" fill="#FDEDF2"/>
        <path d="M80.269 63.048c0-1.65-1.17-2.325-2.6-1.5L30.076 89.026c-1.428.825-2.598 2.85-2.598 4.5v16.072c0 1.65 1.17 2.325 2.598 1.5l47.594-27.48c1.43-.823 2.599-2.848 2.599-4.5v-16.07z" stroke="#33475C" stroke-linecap="round" stroke-linejoin="round"/>
        <path d="M42.254 93.432c0-3.563-2.524-5.02-5.61-3.238-3.085 1.781-5.61 6.153-5.61 9.716 0 3.563 2.525 5.02 5.61 3.24 3.086-1.782 5.61-6.155 5.61-9.718" fill="#FBA9BE"/>
        <path d="M42.254 93.432c0-3.563-2.524-5.02-5.61-3.238-3.085 1.781-5.61 6.153-5.61 9.716 0 3.563 2.525 5.02 5.61 3.24 3.086-1.782 5.61-6.155 5.61-9.718z" stroke="#33475C" stroke-linecap="round" stroke-linejoin="round"/>
        <path d="M34.981 97.061c0-.485-.344-.684-.765-.44-.42.242-.764.837-.764 1.324 0 .485.344.684.764.441.421-.243.765-.839.765-1.325M39.527 94.452c0-.485-.344-.685-.765-.441-.42.242-.764.838-.764 1.324 0 .486.343.684.764.44.421-.241.765-.838.765-1.323" fill="#33475C"/>
        <path d="M34.217 100.56c.469.398 1.177.428 1.976-.033.797-.46 1.505-1.308 1.974-2.248" stroke="#33475C" stroke-linecap="round" stroke-linejoin="round"/>
        <path d="M72.741 68.827c-.392 0-.849.133-1.336.414L47.43 83.083c-1.428.826-2.597 2.619-2.597 3.984 0 .9.508 1.4 1.262 1.4.391 0 .848-.133 1.335-.414L71.405 74.21c1.43-.825 2.6-2.618 2.6-3.985 0-.9-.509-1.4-1.264-1.4m0 1c.146 0 .263 0 .263.4 0 1.016-.98 2.474-2.099 3.119l-23.974 13.84c-.424.246-.706.283-.836.283-.146 0-.262 0-.262-.401 0-1.015.98-2.472 2.097-3.117l23.975-13.842c.424-.245.706-.281.836-.281M64.183 82.46c-.391 0-.848.133-1.335.415l-15.417 8.9c-1.43.826-2.598 2.619-2.598 3.986 0 .9.508 1.399 1.263 1.399.39 0 .848-.134 1.335-.415l15.417-8.9c1.429-.826 2.598-2.62 2.598-3.986 0-.9-.508-1.4-1.263-1.4m0 1c.146 0 .263 0 .263.4 0 1.017-.981 2.474-2.098 3.119l-15.417 8.9c-.424.246-.705.282-.835.282-.146 0-.263 0-.263-.4 0-1.016.98-2.474 2.098-3.118l15.417-8.901c.424-.245.705-.281.835-.281" fill="#FBA9BE"/>
        <path d="M97.192 20.766c0-1.649-1.17-2.324-2.599-1.5L47 46.746c-1.429.824-2.598 2.85-2.598 4.5v16.071c0 1.65 1.17 2.325 2.598 1.5l47.593-27.479c1.43-.824 2.6-2.849 2.6-4.5V20.766z" fill="#FEF8F0"/>
        <path d="M97.192 20.766c0-1.649-1.17-2.324-2.599-1.5L47 46.746c-1.429.824-2.598 2.85-2.598 4.5v16.071c0 1.65 1.17 2.325 2.598 1.5l47.593-27.479c1.43-.824 2.6-2.849 2.6-4.5V20.766z" stroke="#33475C" stroke-linecap="round" stroke-linejoin="round"/>
        <path d="M59.178 51.152c0-3.563-2.524-5.02-5.61-3.238-3.085 1.781-5.61 6.153-5.61 9.716 0 3.562 2.525 5.02 5.61 3.24 3.086-1.782 5.61-6.155 5.61-9.718" fill="#FBE1B2"/>
        <path d="M59.178 51.152c0-3.563-2.524-5.02-5.61-3.238-3.085 1.781-5.61 6.153-5.61 9.716 0 3.562 2.525 5.02 5.61 3.24 3.086-1.782 5.61-6.155 5.61-9.718z" stroke="#33475C" stroke-linecap="round" stroke-linejoin="round"/>
        <path d="M51.905 54.781c0-.485-.344-.685-.765-.441-.42.243-.764.838-.764 1.325 0 .485.344.684.764.441.421-.243.765-.839.765-1.325M56.451 52.172c0-.486-.344-.685-.765-.441-.42.242-.764.838-.764 1.324 0 .486.343.684.764.44.421-.241.765-.838.765-1.323" fill="#33475C"/>
        <path d="M51.14 58.279c.47.398 1.178.429 1.977-.032.797-.462 1.505-1.308 1.974-2.248" stroke="#33475C" stroke-linecap="round" stroke-linejoin="round"/>
        <path d="M89.665 26.546c-.392 0-.849.135-1.336.416L64.354 40.804c-1.428.824-2.597 2.617-2.597 3.984 0 .9.507 1.4 1.262 1.4.391 0 .848-.134 1.335-.415L88.329 31.93c1.429-.825 2.599-2.618 2.599-3.985 0-.9-.508-1.4-1.263-1.4m0 1c.146 0 .263 0 .263.4 0 1.016-.981 2.473-2.099 3.119l-23.975 13.84c-.423.246-.705.283-.835.283-.147 0-.262 0-.262-.4 0-1.016.98-2.473 2.097-3.12l23.975-13.841c.425-.244.706-.281.836-.281M81.106 40.178c-.39 0-.848.136-1.335.416l-15.417 8.9c-1.429.827-2.598 2.62-2.598 3.986 0 .9.508 1.4 1.263 1.4.391 0 .848-.136 1.335-.416l15.417-8.9c1.43-.825 2.598-2.617 2.598-3.986 0-.9-.508-1.4-1.263-1.4m0 1c.147 0 .263 0 .263.4 0 1.016-.98 2.473-2.098 3.12l-15.416 8.9c-.425.245-.706.282-.836.282-.146 0-.263 0-.263-.4 0-1.016.981-2.473 2.098-3.118l15.417-8.901c.424-.245.705-.282.835-.282" fill="#FBE1B2"/>
        <path d="M95.206 71.618c0-1.65-1.169-2.325-2.598-1.5L45.015 97.597c-1.43.825-2.599 2.849-2.599 4.5v16.072c0 1.65 1.169 2.325 2.599 1.5l47.593-27.48c1.429-.824 2.598-2.848 2.598-4.5V71.619z" fill="#E4F8F6"/>
        <path d="M95.206 71.618c0-1.65-1.169-2.325-2.598-1.5L45.015 97.597c-1.43.825-2.599 2.849-2.599 4.5v16.072c0 1.65 1.169 2.325 2.599 1.5l47.593-27.48c1.429-.824 2.598-2.848 2.598-4.5V71.619z" stroke="#33475C" stroke-linecap="round" stroke-linejoin="round"/>
        <path d="M57.191 102.004c0-3.563-2.524-5.02-5.609-3.238-3.086 1.78-5.61 6.153-5.61 9.716 0 3.562 2.524 5.02 5.61 3.239 3.085-1.782 5.61-6.154 5.61-9.717" fill="#7BDED2"/>
        <path d="M57.191 102.004c0-3.563-2.524-5.02-5.609-3.238-3.086 1.78-5.61 6.153-5.61 9.716 0 3.562 2.524 5.02 5.61 3.239 3.085-1.782 5.61-6.154 5.61-9.717z" stroke="#33475C" stroke-linecap="round" stroke-linejoin="round"/>
        <path d="M49.92 105.633c0-.485-.345-.685-.765-.441-.421.243-.765.838-.765 1.324 0 .486.344.684.765.442.42-.243.765-.84.765-1.325M54.466 103.023c0-.486-.345-.685-.766-.442-.42.243-.764.84-.764 1.325s.344.684.764.441c.42-.243.766-.839.766-1.324" fill="#33475C"/>
        <path d="M49.155 109.13c.47.399 1.176.43 1.975-.031.798-.462 1.505-1.31 1.974-2.248" stroke="#33475C" stroke-linecap="round" stroke-linejoin="round"/>
        <path d="M87.679 77.397c-.391 0-.848.134-1.335.415L62.369 91.654c-1.43.825-2.598 2.618-2.598 3.985 0 .901.508 1.4 1.262 1.4.39 0 .848-.134 1.336-.415l23.975-13.842c1.429-.825 2.598-2.619 2.598-3.985 0-.9-.508-1.4-1.263-1.4m0 1c.146 0 .263 0 .263.4 0 1.016-.981 2.473-2.098 3.118L61.869 95.756c-.423.246-.706.283-.836.283-.146 0-.262 0-.262-.4 0-1.016.98-2.474 2.098-3.119l23.974-13.842c.425-.244.706-.28.836-.28M79.121 91.03c-.392 0-.849.135-1.336.416l-15.416 8.9c-1.43.825-2.599 2.618-2.599 3.985 0 .9.508 1.4 1.263 1.4.391 0 .848-.135 1.336-.416l15.416-8.9c1.429-.825 2.598-2.618 2.598-3.985 0-.9-.508-1.4-1.262-1.4m0 1c.146 0 .262 0 .262.4 0 1.016-.981 2.473-2.098 3.119l-15.416 8.9c-.424.245-.706.282-.836.282-.146 0-.263 0-.263-.4 0-1.016.981-2.473 2.099-3.118l15.416-8.902c.424-.244.705-.281.836-.281" fill="#7BDED2"/>
        <path d="M109.981 80.19c0-1.65-1.169-2.326-2.598-1.5L59.79 106.167c-1.429.824-2.598 2.85-2.598 4.5v16.072c0 1.65 1.17 2.324 2.598 1.5l47.594-27.479c1.43-.825 2.598-2.85 2.598-4.5V80.19z" fill="#FFF1EE"/>
        <path d="M109.981 80.19c0-1.65-1.169-2.326-2.598-1.5L59.79 106.167c-1.429.824-2.598 2.85-2.598 4.5v16.072c0 1.65 1.17 2.324 2.598 1.5l47.594-27.479c1.43-.825 2.598-2.85 2.598-4.5V80.19z" stroke="#33475C" stroke-linecap="round" stroke-linejoin="round"/>
        <path d="M71.967 110.575c0-3.563-2.524-5.021-5.61-3.24-3.085 1.782-5.61 6.155-5.61 9.718 0 3.562 2.525 5.019 5.61 3.238 3.086-1.781 5.61-6.153 5.61-9.716" fill="#FFBCAA"/>
        <path d="M71.967 110.575c0-3.563-2.524-5.021-5.61-3.24-3.085 1.782-5.61 6.155-5.61 9.718 0 3.562 2.525 5.019 5.61 3.238 3.086-1.781 5.61-6.153 5.61-9.716z" stroke="#33475C" stroke-linecap="round" stroke-linejoin="round"/>
        <path d="M64.695 114.204c0-.486-.345-.685-.765-.441-.42.242-.765.838-.765 1.324 0 .486.344.684.765.44.42-.241.765-.838.765-1.323M69.241 111.594c0-.485-.345-.685-.766-.441-.42.242-.764.837-.764 1.325 0 .485.344.683.764.44.421-.243.766-.839.766-1.325" fill="#33475C"/>
        <path d="M63.93 117.702c.469.398 1.177.428 1.976-.033.798-.461 1.505-1.308 1.974-2.247" stroke="#33475C" stroke-linecap="round" stroke-linejoin="round"/>
        <path d="M102.454 85.968c-.39 0-.848.135-1.335.415l-23.975 13.843c-1.429.823-2.598 2.617-2.598 3.984 0 .9.508 1.4 1.262 1.4.391 0 .848-.135 1.336-.415l23.975-13.842c1.43-.825 2.598-2.617 2.598-3.985 0-.9-.508-1.4-1.263-1.4m0 1c.146 0 .263 0 .263.4 0 1.016-.98 2.474-2.098 3.12l-23.975 13.84c-.424.245-.706.282-.836.282-.146 0-.262 0-.262-.4 0-1.015.98-2.472 2.098-3.118l23.975-13.843c.424-.245.705-.281.835-.281M93.896 99.601c-.392 0-.849.134-1.336.415l-15.416 8.9c-1.43.827-2.599 2.62-2.599 3.985 0 .9.508 1.4 1.263 1.4.391 0 .848-.134 1.336-.415l15.416-8.9c1.43-.825 2.598-2.618 2.598-3.986 0-.9-.508-1.399-1.262-1.399m0 1c.146 0 .262 0 .262.4 0 1.016-.98 2.473-2.098 3.12l-15.416 8.9c-.424.243-.706.28-.836.28-.146 0-.263 0-.263-.4 0-1.016.981-2.473 2.1-3.117l15.415-8.9c.424-.247.705-.283.836-.283" fill="#FFBCAA"/>
        <path d="M124.865 88.76c0-1.65-1.17-2.325-2.599-1.5l-47.593 27.478c-1.429.826-2.598 2.85-2.598 4.5v16.072c0 1.65 1.17 2.326 2.598 1.5l47.593-27.478c1.43-.825 2.6-2.85 2.6-4.5V88.76z" fill="#F0F1FA"/>
        <path d="M124.865 88.76c0-1.65-1.17-2.325-2.599-1.5l-47.593 27.478c-1.429.826-2.598 2.85-2.598 4.5v16.072c0 1.65 1.17 2.326 2.598 1.5l47.593-27.478c1.43-.825 2.6-2.85 2.6-4.5V88.76z" stroke="#33475C" stroke-linecap="round" stroke-linejoin="round"/>
        <path d="M86.85 119.145c0-3.563-2.524-5.02-5.61-3.238-3.084 1.781-5.61 6.153-5.61 9.716 0 3.563 2.526 5.02 5.61 3.24 3.086-1.782 5.61-6.155 5.61-9.718" fill="#B4BAEA"/>
        <path d="M86.85 119.145c0-3.563-2.524-5.02-5.61-3.238-3.084 1.781-5.61 6.153-5.61 9.716 0 3.563 2.526 5.02 5.61 3.24 3.086-1.782 5.61-6.155 5.61-9.718z" stroke="#33475C" stroke-linecap="round" stroke-linejoin="round"/>
        <path d="M79.578 122.774c0-.485-.344-.684-.765-.44-.42.242-.764.837-.764 1.324 0 .485.343.684.764.441.421-.243.765-.839.765-1.325M84.124 120.165c0-.486-.344-.685-.765-.441-.421.242-.764.838-.764 1.324 0 .486.343.684.764.44.421-.241.765-.838.765-1.323" fill="#33475C"/>
        <path d="M78.813 126.272c.47.4 1.176.43 1.975-.032.798-.46 1.506-1.308 1.974-2.248" stroke="#33475C" stroke-linecap="round" stroke-linejoin="round"/>
        <path d="M117.338 94.54c-.392 0-.85.133-1.336.414l-23.975 13.842c-1.428.825-2.597 2.619-2.597 3.984 0 .9.508 1.4 1.262 1.4.39 0 .848-.133 1.335-.414l23.975-13.842c1.429-.825 2.598-2.618 2.598-3.986 0-.9-.507-1.398-1.262-1.398m0 1c.146 0 .262 0 .262.398 0 1.017-.981 2.475-2.098 3.12l-23.975 13.84c-.423.246-.705.283-.835.283-.147 0-.262 0-.262-.401 0-1.015.98-2.472 2.097-3.117l23.975-13.842c.424-.245.705-.281.836-.281M108.78 108.173c-.392 0-.849.133-1.337.415l-15.416 8.9c-1.429.826-2.598 2.619-2.598 3.986 0 .9.508 1.399 1.262 1.399.392 0 .85-.134 1.336-.415l15.416-8.9c1.43-.826 2.6-2.62 2.6-3.986 0-.9-.509-1.4-1.264-1.4m0 1c.146 0 .263 0 .263.4 0 1.017-.98 2.474-2.099 3.119l-15.416 8.9c-.424.246-.705.282-.836.282-.146 0-.262 0-.262-.4 0-1.016.981-2.474 2.098-3.118l15.417-8.901c.423-.245.705-.281.835-.281" fill="#B4BAEA"/>
        <path d="M101.112 59.12c-.27 0-.537-.05-.789-.147-.526-.202-.967-.62-1.2-1.143l-1.539-3.474-2.505 1.109c-.276.124-.573.187-.882.187-.424 0-.837-.123-1.192-.356-.616-.4-.987-1.082-.987-1.823l.004-16.04c0-.863.51-1.645 1.298-1.994.278-.123.575-.186.882-.186.545 0 1.065.202 1.466.568l11.878 10.777c.546.494.804 1.226.687 1.959-.117.73-.593 1.347-1.272 1.646l-2.5 1.109 1.534 3.468c.236.533.25 1.126.04 1.668-.207.534-.626.974-1.15 1.206l-2.89 1.28c-.282.125-.578.187-.883.187" fill="#E5F5F8"/>
        <path d="M94.202 34.003c-.48 0-.948.1-1.389.294-1.24.55-2.04 1.78-2.04 3.136l-.005 16.04c0 1.165.583 2.24 1.56 2.875.551.36 1.2.555 1.87.555.484 0 .955-.101 1.4-.3l1.35-.598 1.028 2.326c.368.828 1.062 1.487 1.906 1.812.391.15.806.229 1.231.229.485 0 .956-.101 1.4-.3l2.877-1.274c.84-.372 1.481-1.047 1.811-1.9.33-.852.31-1.784-.062-2.623l-1.03-2.326 1.362-.603c1.062-.47 1.81-1.44 1.996-2.59.185-1.152-.22-2.307-1.085-3.088L96.506 34.894c-.625-.573-1.446-.891-2.304-.891m0 2.5c.226 0 .45.082.624.242l11.88 10.778c.232.21.343.525.293.835-.05.31-.254.575-.542.702l-3.647 1.616 2.041 4.61c.101.226.107.482.018.71-.089.23-.266.415-.49.516l-2.89 1.28c-.12.053-.248.08-.376.08-.114 0-.227-.021-.335-.062-.229-.09-.415-.266-.515-.491l-2.042-4.611-3.648 1.614c-.12.054-.248.08-.376.08-.178 0-.353-.05-.507-.151-.263-.171-.422-.464-.422-.777l.004-16.041c0-.368.217-.701.553-.85.121-.053.25-.08.377-.08" fill="#33475C"/>
    </g>
</svg>
